<svg width="119.000000" height="24.000000" viewBox="0 0 119 24" fill="none" xmlns="http://www.w3.org/2000/svg" xmlns:xlink="http://www.w3.org/1999/xlink">
	<desc>
			Created with Pixso.
	</desc>
	<defs/>
	<path id="Logo" d="M11.55 24C5.06 24 0 18.73 0 11.96C0 5.22 5.06 0 11.55 0C17.61 0 22.36 4.04 23.16 9.94L18 9.94C17.45 6.64 14.88 4.36 11.61 4.36C7.66 4.36 5 7.47 5 11.96C5 16.49 7.66 19.63 11.61 19.63C14.88 19.63 17.42 17.32 18 14.02L23.16 14.02C22.36 19.98 17.61 24 11.55 24ZM102.26 23.51L106.72 23.51L106.72 15.56L113.26 23.51L118.94 23.51L111.02 14.59L118.11 6.38L112.98 6.38L106.72 13.63L106.72 0.48L102.26 0.48L102.26 23.51ZM25.06 14.95C25.06 9.97 25.06 6.06 33.75 6.06C42.45 6.06 42.45 9.97 42.45 14.95C42.45 19.95 38.73 23.83 33.75 23.83C28.78 23.83 25.06 19.95 25.06 14.95ZM68.93 14.95C68.93 19.92 72.65 23.83 77.62 23.83C82.59 23.83 86.32 19.92 86.32 14.95C86.32 9.94 86.32 6.06 77.62 6.06C68.93 6.06 68.93 9.94 68.93 14.95ZM93.62 15.2L93.62 23.51L89.16 23.51L89.16 6.38L93.27 6.38L93.27 9.68C94.52 7.5 97.18 6.19 99.94 6.19L99.94 10.81C96.16 10.52 93.62 11.42 93.62 15.2ZM58.91 23.51L55.67 12.38L52.46 23.51L48 23.51L43.12 6.38L47.45 6.38L50.37 17.23L53.52 6.38L57.91 6.38L60.96 17.23L63.85 6.38L68.25 6.38L63.34 23.51L58.91 23.51ZM37.86 14.95C37.86 11.77 37.86 10.01 33.75 10.01C29.65 10.01 29.65 11.77 29.65 14.95C29.65 18.12 31.54 19.86 33.75 19.86C35.97 19.86 37.86 18.12 37.86 14.95ZM81.73 14.95C81.73 18.12 79.83 19.89 77.62 19.89C75.41 19.89 73.51 18.12 73.51 14.95C73.51 11.77 73.51 10.04 77.62 10.04C81.73 10.04 81.73 11.77 81.73 14.95Z" fill="#1D1E1C" fill-opacity="1.000000" fill-rule="evenodd"/>
</svg>
