<svg width="132.000000" height="35.000000" viewBox="0 0 132 35" fill="none" xmlns="http://www.w3.org/2000/svg" xmlns:xlink="http://www.w3.org/1999/xlink">
	<desc>
			Created with Pixso.
	</desc>
	<defs>
		<clipPath id="clip3_431">
			<rect id="Logo" width="132.000000" height="35.000000" transform="translate(-0.729370 0.000000)" fill="white" fill-opacity="0"/>
		</clipPath>
	</defs>
	<rect id="Logo" width="132.000000" height="35.000000" transform="translate(-0.729370 0.000000)" fill="#FFFFFF" fill-opacity="0"/>
	<g clip-path="url(#clip3_431)">
		<path id="Vector" d="M29.79 12.25C30.15 12.25 30.27 12.37 30.27 12.73L30.27 20.64L34.34 20.64C34.69 20.64 34.82 20.78 34.82 21.12L34.82 21.83C34.82 22.17 34.69 22.31 34.34 22.31L28.98 22.31C28.63 22.31 28.49 22.17 28.49 21.83L28.49 12.73C28.49 12.37 28.63 12.25 28.98 12.25L29.79 12.25Z" fill="#1D1E1C" fill-opacity="1.000000" fill-rule="nonzero"/>
		<path id="Vector" d="M38.37 15.74C38.37 13.42 39.83 12.04 42.37 12.04C44.91 12.04 46.37 13.42 46.37 15.74L46.37 18.82C46.37 21.13 44.9 22.52 42.37 22.52C39.84 22.52 38.37 21.13 38.37 18.82L38.37 15.74ZM44.69 15.74C44.69 14.43 43.88 13.74 42.42 13.74C40.96 13.74 40.16 14.45 40.16 15.74L40.16 18.84C40.16 20.15 40.96 20.84 42.42 20.84C43.88 20.84 44.69 20.12 44.69 18.84L44.69 15.74Z" fill="#1D1E1C" fill-opacity="1.000000" fill-rule="nonzero"/>
		<path id="Vector" d="M58.28 16.79C58.67 16.79 58.76 16.92 58.76 17.28L58.76 19.17C58.77 19.62 58.68 20.07 58.49 20.48C58.31 20.88 58.04 21.25 57.7 21.54C56.85 22.21 55.78 22.55 54.7 22.48C52.11 22.48 50.7 21.09 50.7 18.78L50.7 15.67C50.7 13.39 52.16 12 54.7 12C56.7 12 58 12.79 58.55 14.37C58.58 14.42 58.59 14.49 58.59 14.56C58.59 14.62 58.58 14.69 58.55 14.75C58.52 14.81 58.48 14.86 58.43 14.9C58.37 14.94 58.31 14.97 58.25 14.99L57.47 15.26C57.13 15.37 56.99 15.31 56.87 14.96C56.7 14.53 56.4 14.17 56 13.93C55.61 13.7 55.15 13.6 54.7 13.65C53.23 13.65 52.43 14.37 52.43 15.65L52.43 18.84C52.43 20.14 53.24 20.84 54.7 20.84C56.16 20.84 57.06 20.16 57.06 19.18L57.06 18.45L54.89 18.45C54.53 18.45 54.4 18.31 54.4 17.95L54.4 17.28C54.4 16.92 54.53 16.79 54.89 16.79L58.28 16.79Z" fill="#1D1E1C" fill-opacity="1.000000" fill-rule="nonzero"/>
		<path id="Vector" d="M62.89 15.74C62.89 13.42 64.35 12.04 66.89 12.04C69.43 12.04 70.89 13.42 70.89 15.74L70.89 18.82C70.89 21.13 69.42 22.52 66.89 22.52C64.36 22.52 62.89 21.13 62.89 18.82L62.89 15.74ZM69.2 15.74C69.2 14.43 68.39 13.74 66.94 13.74C65.49 13.74 64.67 14.45 64.67 15.74L64.67 18.84C64.67 20.15 65.48 20.84 66.94 20.84C68.4 20.84 69.2 20.12 69.2 18.84L69.2 15.74Z" fill="#1D1E1C" fill-opacity="1.000000" fill-rule="nonzero"/>
		<path id="Vector" d="M75.6 12.54C75.6 12.32 75.67 12.25 75.89 12.25L76.35 12.25C76.57 12.25 76.62 12.32 76.62 12.54L76.62 22.02C76.62 22.24 76.62 22.31 76.35 22.31L75.89 22.31C75.67 22.31 75.6 22.24 75.6 22.02L75.6 12.54Z" fill="#1D1E1C" fill-opacity="1.000000" fill-rule="nonzero"/>
		<path id="Vector" d="M85.73 12.25C86.56 12.25 87.36 12.58 87.95 13.16C88.53 13.75 88.87 14.55 88.87 15.38C88.87 16.22 88.53 17.02 87.95 17.61C87.36 18.19 86.56 18.53 85.73 18.53L82.73 18.53L82.73 22.02C82.73 22.24 82.68 22.31 82.47 22.31L82 22.31C81.79 22.31 81.71 22.24 81.71 22.02L81.71 12.54C81.71 12.32 81.79 12.25 82 12.25L85.73 12.25ZM85.64 17.54C85.92 17.54 86.21 17.48 86.47 17.37C86.73 17.26 86.97 17.1 87.18 16.9C87.38 16.69 87.54 16.45 87.65 16.19C87.76 15.92 87.82 15.64 87.82 15.36C87.82 15.07 87.76 14.79 87.65 14.52C87.54 14.26 87.38 14.02 87.18 13.81C86.97 13.61 86.73 13.45 86.47 13.34C86.21 13.23 85.92 13.17 85.64 13.17L82.64 13.17L82.64 17.54L85.64 17.54Z" fill="#1D1E1C" fill-opacity="1.000000" fill-rule="nonzero"/>
		<path id="Vector" d="M96.68 12.05C97.45 11.96 98.23 12.13 98.9 12.52C99.57 12.91 100.09 13.51 100.4 14.23C100.48 14.39 100.4 14.52 100.24 14.6L99.8 14.8C99.62 14.87 99.55 14.86 99.44 14.67C99.21 14.13 98.82 13.69 98.32 13.39C97.83 13.1 97.25 12.97 96.68 13.03C94.99 13.03 94.07 13.7 94.07 14.9C94.06 15.26 94.18 15.62 94.41 15.9C94.65 16.19 94.97 16.37 95.34 16.44C95.87 16.61 96.43 16.72 97 16.76C97.68 16.79 98.35 16.93 99 17.17C99.49 17.32 99.91 17.64 100.2 18.07C100.48 18.5 100.61 19.02 100.56 19.54C100.56 21.41 99.2 22.54 96.7 22.54C95.88 22.63 95.05 22.44 94.35 22C93.65 21.55 93.13 20.89 92.87 20.11C92.85 20.07 92.84 20.03 92.84 19.99C92.84 19.95 92.84 19.91 92.86 19.88C92.88 19.84 92.9 19.81 92.93 19.78C92.96 19.75 93 19.74 93.04 19.73L93.48 19.57C93.51 19.55 93.55 19.54 93.58 19.54C93.62 19.55 93.66 19.55 93.69 19.57C93.73 19.59 93.76 19.61 93.78 19.64C93.81 19.67 93.82 19.7 93.84 19.74C94.06 20.3 94.46 20.78 94.97 21.1C95.49 21.43 96.09 21.58 96.7 21.54C98.59 21.54 99.52 20.88 99.52 19.54C99.53 19.18 99.43 18.84 99.21 18.56C99 18.28 98.69 18.08 98.35 18.01C97.83 17.85 97.29 17.76 96.76 17.73L95.68 17.59C95.34 17.51 95 17.42 94.68 17.32C94.35 17.22 94.05 17.06 93.79 16.85C93.52 16.6 93.31 16.31 93.17 15.98C93.03 15.65 92.97 15.29 92.99 14.94C93.06 13.19 94.37 12.05 96.68 12.05Z" fill="#1D1E1C" fill-opacity="1.000000" fill-rule="nonzero"/>
		<path id="Vector" d="M105.95 18.88C105.99 19.59 106.3 20.26 106.82 20.74C107.33 21.23 108.01 21.5 108.72 21.5C109.43 21.5 110.11 21.23 110.63 20.74C111.14 20.26 111.45 19.59 111.5 18.88L111.5 12.54C111.5 12.32 111.57 12.25 111.79 12.25L112.25 12.25C112.47 12.25 112.54 12.32 112.54 12.54L112.54 18.87C112.54 21.14 111.2 22.52 108.73 22.52C106.26 22.52 104.92 21.14 104.92 18.87L104.92 12.54C104.92 12.32 104.99 12.25 105.2 12.25L105.67 12.25C105.88 12.25 105.95 12.32 105.95 12.54L105.95 18.88Z" fill="#1D1E1C" fill-opacity="1.000000" fill-rule="nonzero"/>
		<path id="Vector" d="M126.34 12.25C126.56 12.25 126.63 12.32 126.63 12.54L126.63 22.02C126.63 22.24 126.56 22.31 126.34 22.31L125.92 22.31C125.71 22.31 125.64 22.24 125.64 22.02L125.64 16.25C125.64 15.41 125.69 14.57 125.81 13.74L125.75 13.74C125.43 14.5 125.07 15.23 124.66 15.95L122.51 19.74C122.48 19.8 122.43 19.86 122.38 19.9C122.32 19.94 122.25 19.96 122.18 19.95L121.9 19.95C121.82 19.96 121.75 19.93 121.69 19.9C121.63 19.86 121.59 19.8 121.56 19.74L119.38 15.9C118.99 15.2 118.66 14.48 118.38 13.73L118.32 13.73C118.42 14.56 118.47 15.41 118.48 16.26L118.48 22.02C118.48 22.24 118.41 22.31 118.19 22.31L117.8 22.31C117.58 22.31 117.51 22.24 117.51 22.02L117.51 12.54C117.51 12.32 117.58 12.25 117.8 12.25L118.16 12.25C118.24 12.24 118.32 12.26 118.39 12.3C118.46 12.34 118.52 12.4 118.56 12.48L122.06 18.7L125.54 12.54C125.65 12.33 125.71 12.3 125.93 12.3L126.34 12.25Z" fill="#1D1E1C" fill-opacity="1.000000" fill-rule="nonzero"/>
		<path id="Vector" d="M12 20.79L12 28.02C12 28.29 11.89 28.56 11.69 28.75C11.49 28.95 11.23 29.06 10.95 29.06C10.67 29.06 10.41 28.95 10.21 28.75C10.02 28.56 9.91 28.29 9.91 28.02L9.91 20.8C10.2 21.01 10.55 21.13 10.91 21.13C11.3 21.15 11.68 21.02 12 20.79ZM20.9 18.7C20.63 18.7 20.38 18.8 20.19 18.99C20 19.18 19.9 19.43 19.9 19.7L19.9 20.96C19.9 21.23 20.01 21.5 20.2 21.69C20.4 21.89 20.66 22 20.94 22C21.22 22 21.48 21.89 21.68 21.69C21.88 21.5 21.99 21.23 21.99 20.96L21.99 19.75C21.99 19.6 21.97 19.46 21.92 19.32C21.87 19.19 21.78 19.07 21.68 18.97C21.58 18.87 21.45 18.79 21.32 18.75C21.18 18.7 21.04 18.68 20.9 18.7ZM7.64 23.53C7.28 23.51 6.93 23.4 6.64 23.18L6.64 30.43C6.64 30.71 6.75 30.98 6.94 31.18C7.14 31.37 7.41 31.49 7.69 31.49C7.96 31.49 8.23 31.37 8.43 31.18C8.63 30.98 8.74 30.71 8.74 30.43L8.74 23.24C8.41 23.45 8.02 23.55 7.64 23.53ZM17.64 16.53C17.5 16.52 17.36 16.54 17.24 16.59C17.11 16.63 16.99 16.71 16.9 16.8C16.8 16.89 16.72 17.01 16.67 17.13C16.61 17.26 16.59 17.39 16.59 17.53L16.59 23.1C16.59 23.37 16.7 23.64 16.89 23.84C17.09 24.03 17.36 24.14 17.64 24.14C17.91 24.14 18.18 24.03 18.38 23.84C18.58 23.64 18.69 23.37 18.69 23.1L18.69 17.6C18.69 17.45 18.67 17.31 18.62 17.17C18.56 17.04 18.48 16.92 18.38 16.82C18.27 16.72 18.15 16.64 18.01 16.59C17.87 16.55 17.73 16.53 17.59 16.54L17.64 16.53ZM14.32 18.66C13.94 18.66 13.57 18.54 13.27 18.33L13.27 25.6C13.27 25.87 13.38 26.14 13.57 26.34C13.77 26.53 14.04 26.64 14.32 26.64C14.59 26.64 14.86 26.53 15.06 26.34C15.26 26.14 15.37 25.87 15.37 25.6L15.37 18.34C15.05 18.57 14.66 18.69 14.27 18.68L14.32 18.66ZM5.37 24.24L5.37 3.92C5.36 3.68 5.26 3.44 5.09 3.27C4.91 3.09 4.67 3 4.43 3L4.21 3C3.96 3 3.72 3.09 3.54 3.27C3.37 3.44 3.27 3.68 3.27 3.92L3.27 24.24C3.27 24.48 3.36 24.72 3.54 24.9C3.72 25.08 3.96 25.17 4.21 25.17L4.43 25.17C4.67 25.17 4.91 25.08 5.09 24.9C5.27 24.72 5.37 24.48 5.37 24.24ZM7.75 22.76L7.53 22.76C7.28 22.76 7.04 22.66 6.86 22.48C6.68 22.3 6.59 22.06 6.59 21.82L6.59 6.35C6.59 6.1 6.69 5.86 6.86 5.69C7.04 5.51 7.28 5.41 7.53 5.41L7.75 5.41C7.99 5.41 8.23 5.51 8.41 5.69C8.58 5.86 8.68 6.1 8.69 6.35L8.69 21.84C8.69 22.08 8.59 22.32 8.41 22.5C8.23 22.68 7.99 22.78 7.75 22.78L7.75 22.76ZM11.06 20.37L10.83 20.37C10.58 20.37 10.34 20.28 10.17 20.1C9.99 19.93 9.9 19.69 9.9 19.45L9.9 8.75C9.89 8.62 9.92 8.5 9.96 8.39C10.01 8.27 10.08 8.17 10.16 8.08C10.25 7.99 10.35 7.92 10.47 7.88C10.58 7.83 10.7 7.81 10.83 7.81L11.06 7.81C11.3 7.81 11.54 7.91 11.71 8.08C11.89 8.26 11.99 8.5 11.99 8.75L11.99 19.45C11.99 19.69 11.89 19.93 11.71 20.1C11.54 20.28 11.3 20.37 11.06 20.37ZM14.37 17.92L14.16 17.92C13.91 17.92 13.67 17.83 13.49 17.65C13.32 17.48 13.22 17.24 13.22 17L13.22 11.24C13.21 11.11 13.23 10.98 13.27 10.86C13.31 10.74 13.38 10.62 13.47 10.53C13.56 10.44 13.66 10.36 13.78 10.31C13.9 10.26 14.03 10.23 14.16 10.24L14.38 10.24C14.62 10.24 14.86 10.33 15.04 10.51C15.22 10.69 15.32 10.93 15.32 11.17L15.32 16.98C15.32 17.1 15.29 17.22 15.25 17.34C15.2 17.45 15.13 17.56 15.04 17.65C14.96 17.73 14.85 17.8 14.74 17.85C14.62 17.9 14.5 17.92 14.38 17.92L14.37 17.92ZM17.69 15.78L17.47 15.78C17.22 15.78 16.98 15.68 16.8 15.5C16.62 15.32 16.53 15.08 16.53 14.84L16.53 13.35C16.53 13.1 16.63 12.86 16.8 12.69C16.98 12.51 17.22 12.41 17.47 12.41L17.69 12.41C17.93 12.41 18.17 12.51 18.35 12.69C18.52 12.86 18.62 13.1 18.63 13.35L18.63 14.84C18.63 15.08 18.53 15.32 18.35 15.5C18.18 15.67 17.94 15.77 17.7 15.78L17.69 15.78Z" fill="#1D1E1C" fill-opacity="1.000000" fill-rule="nonzero"/>
	</g>
</svg>
