<svg width="149.000000" height="14.000000" viewBox="0 0 149 14" fill="none" xmlns="http://www.w3.org/2000/svg" xmlns:xlink="http://www.w3.org/1999/xlink">
	<desc>
			Created with Pixso.
	</desc>
	<defs/>
	<path id="Vector" d="M73.42 13.37L68.3 13.37L68.3 -0.32L73.42 -0.32L73.42 13.37ZM68.8 12.87L72.92 12.87L72.92 0.18L68.8 0.18L68.8 12.87ZM80.54 13.37L75.52 13.37L75.52 -0.32L86.01 -0.32C87.51 -0.44 89 -0.02 90.22 0.87C90.74 1.35 91.15 1.94 91.41 2.6C91.66 3.27 91.76 3.98 91.7 4.69C91.77 5.91 91.39 7.11 90.61 8.06C89.69 9.11 88.17 9.65 86.08 9.67C85.55 9.69 81.6 9.67 80.54 9.67L80.54 13.37ZM76.02 12.87L80.04 12.87L80.04 9.17L80.29 9.17C80.34 9.17 85.47 9.18 86.06 9.17C88.01 9.15 89.41 8.67 90.23 7.73C90.92 6.87 91.26 5.78 91.19 4.68C91.25 4.05 91.17 3.41 90.94 2.82C90.72 2.22 90.36 1.69 89.89 1.25C88.76 0.44 87.38 0.06 86 0.18L76.02 0.18L76.02 12.87ZM84.94 6.6L80.01 6.6L80.01 2.87L84.98 2.87C85.33 2.82 85.69 2.87 86.02 2.99C86.35 3.12 86.65 3.33 86.88 3.6C87.09 3.95 87.18 4.35 87.16 4.75C87.18 5.13 87.1 5.5 86.92 5.83C86.69 6.12 86.38 6.34 86.03 6.47C85.69 6.61 85.31 6.65 84.94 6.59L84.94 6.6ZM80.51 6.1L84.94 6.1C85.76 6.1 86.27 5.93 86.5 5.58C86.62 5.32 86.68 5.04 86.66 4.75C86.68 4.45 86.62 4.16 86.47 3.89L86.47 3.89C86.23 3.54 85.76 3.37 84.98 3.37L80.51 3.37L80.51 6.1ZM100.82 13.57C96.33 13.57 93.65 12.46 92.63 10.16C92.47 9.72 92.35 9.26 92.3 8.79L92.25 8.5L97.59 8.5L97.63 8.71C97.67 8.92 97.76 9.12 97.89 9.3C98.1 9.55 98.81 9.98 101.14 9.98C103.95 9.98 103.95 9.49 103.95 9.22C103.95 8.77 103.63 8.62 101.34 8.38L100.9 8.34C100.04 8.26 98.95 8.15 98.45 8.11C94.25 7.73 92.38 6.42 92.38 3.88C92.38 1.21 95.57 -0.52 100.51 -0.52C104.54 -0.52 107.13 0.54 108.22 2.64C108.48 3.13 108.65 3.65 108.73 4.2L108.77 4.48L103.42 4.48L103.4 4.26C103.38 4.08 103.3 3.91 103.18 3.78C102.98 3.51 102.35 3.07 100.39 3.07C97.98 3.07 97.65 3.38 97.65 3.71C97.65 4.15 98.41 4.31 100.85 4.57C101.86 4.65 103.5 4.82 104.06 4.89C107.58 5.27 109.15 6.55 109.15 9.02C109.15 11.09 107.71 13.57 100.82 13.57ZM92.84 9C92.89 9.33 92.97 9.65 93.09 9.96C94.02 12.05 96.55 13.07 100.82 13.07C104.4 13.07 108.66 12.37 108.66 9.02C108.66 6.83 107.27 5.74 104.01 5.39C103.45 5.32 101.82 5.15 100.81 5.07C98.21 4.79 97.15 4.64 97.15 3.71C97.15 2.75 98.29 2.57 100.39 2.57C102.05 2.57 103.12 2.87 103.58 3.48C103.7 3.62 103.8 3.8 103.86 3.98L108.19 3.98C108.1 3.6 107.96 3.22 107.78 2.87C106.78 0.95 104.34 -0.02 100.51 -0.02C95.87 -0.02 92.88 1.51 92.88 3.88C92.88 6.14 94.56 7.26 98.5 7.61C99 7.65 100.09 7.76 100.95 7.84L101.39 7.88C103.52 8.1 104.45 8.24 104.45 9.22C104.45 10.27 103.24 10.48 101.15 10.48C99.21 10.48 97.98 10.19 97.51 9.62C97.36 9.43 97.25 9.22 97.19 9L92.84 9ZM118.65 13.55C113.43 13.55 110.55 11.44 110.55 7.61L110.55 -0.32L115.6 -0.32L115.6 7.61C115.6 8.92 116.78 9.68 118.83 9.68C120.79 9.68 122.01 8.89 122.01 7.63L122.01 -0.32L127.01 -0.32L127.01 8.03C127.01 11.54 123.96 13.55 118.65 13.55L118.65 13.55ZM111.05 0.18L111.05 7.61C111.05 12.35 115.81 13.05 118.65 13.05C121.59 13.05 126.52 12.4 126.52 8.03L126.52 0.18L122.52 0.18L122.52 7.63C122.52 9.18 121.07 10.18 118.84 10.18C116.51 10.18 115.11 9.22 115.11 7.61L115.11 0.18L111.05 0.18ZM148.2 13.37L143.43 13.37L143.43 7.19L140.72 13.37L136.57 13.37L133.89 7.2L133.89 13.37L129.1 13.37L129.1 -0.32L135.4 -0.32L138.67 7.23L142.1 -0.32L148.2 -0.32L148.2 13.37ZM143.93 12.87L147.7 12.87L147.7 0.18L142.41 0.18L138.65 8.46L135.07 0.18L129.6 0.18L129.6 12.87L133.39 12.87L133.39 4.79L136.89 12.87L140.39 12.87L143.92 4.81L143.93 12.87ZM3.78 -0.07L-0.78 -0.07L-0.78 13.12L11.81 13.12L11.81 9.61L3.78 9.61L3.78 -0.07ZM21 -0.37C15.19 -0.37 12.13 2.39 12.13 6.43C12.13 11 15.34 13.32 21 13.32C27.23 13.32 29.85 10.63 29.85 6.43C29.85 2.17 26.9 -0.37 21 -0.37L21 -0.37ZM20.98 3.06C21.38 3.06 21.77 3.08 22.17 3.13L17.08 8.22C16.84 7.67 16.72 7.08 16.73 6.49C16.73 4.42 17.77 3.06 20.98 3.06L20.98 3.06ZM21 9.95C20.62 9.95 20.24 9.93 19.86 9.88L24.96 4.78C25.19 5.32 25.3 5.9 25.28 6.48C25.28 8.49 24.32 9.94 21 9.94L21 9.95ZM38.88 8.15L43.56 8.15C43.49 8.47 43.35 8.78 43.14 9.04C42.17 9.83 40.93 10.21 39.68 10.11C39.05 10.18 38.42 10.11 37.82 9.91C37.22 9.71 36.67 9.38 36.21 8.95C35.73 8.26 35.51 7.42 35.57 6.58C35.49 5.7 35.73 4.83 36.26 4.11C36.91 3.37 38.02 3.05 39.65 3.05C40.69 2.97 41.72 3.24 42.59 3.81C42.86 4.03 43.07 4.32 43.18 4.65L47.52 4.65C47.49 4.11 47.36 3.57 47.14 3.07C46.1 0.95 43.68 -0.31 39.56 -0.31C35.98 -0.31 33.58 0.79 32.25 2.43C31.38 3.62 30.93 5.07 30.98 6.55C30.92 8.06 31.36 9.55 32.22 10.78C33.54 12.48 35.87 13.32 38.68 13.32C40.54 13.45 42.39 12.93 43.92 11.84L44.04 13.12L47.65 13.12L47.65 5.31L38.88 5.31L38.88 8.15ZM57.9 -0.37C52.08 -0.37 49.03 2.38 49.03 6.43C49.03 11 52.23 13.32 57.9 13.32C64.13 13.32 66.75 10.63 66.75 6.43C66.75 2.17 63.79 -0.37 57.9 -0.37L57.9 -0.37ZM57.88 3.05C58.26 3.05 58.65 3.08 59.03 3.12L53.96 8.19C53.73 7.66 53.61 7.07 53.63 6.49C53.62 4.42 54.67 3.05 57.88 3.05ZM57.9 9.94C57.5 9.94 57.11 9.92 56.72 9.87L61.84 4.76C62.08 5.3 62.2 5.89 62.18 6.48C62.18 8.49 61.22 9.94 57.9 9.94L57.9 9.94Z" fill="#1D1E1C" fill-opacity="1.000000" fill-rule="nonzero"/>
</svg>
