<svg width="154.000000" height="26.000000" viewBox="0 0 154 26" fill="none" xmlns="http://www.w3.org/2000/svg" xmlns:xlink="http://www.w3.org/1999/xlink">
	<desc>
			Created with Pixso.
	</desc>
	<defs/>
	<path id="Vector" d="M-0.73 12.8L5.41 12.8C6.81 12.8 8.26 12.71 9.45 11.97C10.39 11.4 11.17 10.62 11.75 9.68C12.48 8.49 12.57 7.04 12.57 5.64L12.57 -0.5L3.47 -0.5C2.35 -0.5 1.28 -0.06 0.5 0.73C-0.29 1.51 -0.73 2.58 -0.73 3.69L-0.73 12.8ZM31.78 0.89C31.78 1.27 31.64 1.62 31.37 1.88C31.11 2.15 30.76 2.3 30.38 2.3C30.01 2.3 29.66 2.15 29.39 1.88C29.13 1.62 28.98 1.27 28.98 0.89C28.98 0.52 29.13 0.17 29.39 -0.09C29.66 -0.36 30.01 -0.5 30.38 -0.5C30.76 -0.5 31.11 -0.36 31.37 -0.09C31.64 0.17 31.78 0.52 31.78 0.89ZM147.46 7.97C151.38 7.97 153.27 10.7 153.27 13.87L153.27 19.81L149.17 19.81L149.17 14.57C149.17 13.14 148.65 11.95 147.14 11.95C145.64 11.95 145.14 13.14 145.14 14.57L145.14 19.81L141.05 19.81L141.05 14.57C141.05 13.14 140.55 11.95 139.04 11.95C137.54 11.95 137.02 13.14 137.02 14.57L137.02 19.81L132.92 19.81L132.92 13.87C132.92 10.7 134.81 7.97 138.73 7.97C140.87 7.97 142.41 8.81 143.12 10.2C143.87 8.81 145.51 7.97 147.46 7.97L147.46 7.97ZM125.57 16.17C126.88 16.17 127.45 14.96 127.45 13.53L127.45 8.42L131.55 8.42L131.55 14.03C131.55 17.38 129.59 20.16 125.57 20.16C121.54 20.16 119.58 17.38 119.58 14.03L119.58 8.42L123.68 8.42L123.68 13.53C123.68 14.96 124.24 16.17 125.57 16.17ZM113.56 20.18C110.99 20.18 109.33 19.29 108.35 17.56L111.31 15.9C111.72 16.62 112.33 16.99 113.35 16.99C114.2 16.99 114.58 16.69 114.58 16.33C114.58 14.94 108.58 16.35 108.58 11.93C108.58 9.79 110.4 8.06 113.49 8.06C116.2 8.06 117.68 9.38 118.34 10.66L115.38 12.34C115.13 11.66 114.35 11.25 113.58 11.25C112.99 11.25 112.67 11.5 112.67 11.84C112.67 13.25 118.68 11.95 118.68 16.24C118.68 18.63 116.33 20.18 113.56 20.18ZM99.25 25.05L95.15 25.05L95.15 14.1C95.15 10.61 97.77 8.08 101.41 8.08C104.96 8.08 107.67 10.79 107.67 14.1C107.67 17.74 105.26 20.16 101.64 20.16C100.8 20.16 99.95 19.9 99.25 19.52L99.25 25.05ZM101.41 16.31C102.71 16.31 103.57 15.3 103.57 14.12C103.57 12.91 102.71 11.93 101.41 11.93C100.11 11.93 99.25 12.91 99.25 14.12C99.25 15.3 100.11 16.31 101.41 16.31ZM91.05 7.22C89.71 7.22 88.59 6.1 88.59 4.76C88.59 3.41 89.71 2.3 91.05 2.3C92.39 2.3 93.51 3.41 93.51 4.76C93.51 6.1 92.39 7.22 91.05 7.22ZM89 8.42L93.1 8.42L93.1 19.81L89 19.81L89 8.42ZM81.14 20.16C77.59 20.16 74.89 17.42 74.89 14.1C74.89 10.79 77.59 8.06 81.14 8.06C84.69 8.06 87.4 10.79 87.4 14.1C87.4 17.42 84.69 20.16 81.14 20.16ZM81.14 16.31C82.44 16.31 83.31 15.3 83.31 14.12C83.31 12.91 82.44 11.91 81.14 11.91C79.85 11.91 78.98 12.91 78.98 14.12C78.98 15.3 79.85 16.31 81.14 16.31ZM67.15 25.39C64.33 25.39 62.28 24.14 61.24 21.91L64.63 20.09C64.99 20.86 65.67 21.66 67.09 21.66C68.56 21.66 69.54 20.72 69.66 19.08C69.11 19.56 68.25 19.93 66.95 19.93C63.79 19.93 61.24 17.49 61.24 14.07C61.24 10.77 63.95 8.08 67.5 8.08C71.14 8.08 73.75 10.61 73.75 14.1L73.75 18.61C73.75 22.71 70.91 25.39 67.15 25.39ZM67.43 16.08C68.66 16.08 69.59 15.23 69.59 13.98C69.59 12.75 68.66 11.93 67.43 11.93C66.22 11.93 65.27 12.75 65.27 13.98C65.27 15.24 66.22 16.08 67.43 16.08L67.43 16.08ZM54.29 20.16C50.74 20.16 48.03 17.42 48.03 14.1C48.03 10.79 50.74 8.06 54.29 8.06C57.84 8.06 60.55 10.79 60.55 14.1C60.55 17.42 57.84 20.16 54.29 20.16ZM54.29 16.31C55.59 16.31 56.45 15.3 56.45 14.12C56.45 12.91 55.59 11.91 54.29 11.91C52.99 11.91 52.13 12.91 52.13 14.12C52.13 15.3 52.99 16.31 54.29 16.31ZM40.57 4.44L40.57 15.94L47.36 15.94L47.36 19.81L40.01 19.81C37.41 19.81 36.37 18.45 36.37 16.28L36.37 4.44L40.57 4.44Z" fill="#1D1E1C" fill-opacity="1.000000" fill-rule="nonzero"/>
</svg>
