<svg width="138.000000" height="32.000000" viewBox="0 0 138 32" fill="none" xmlns="http://www.w3.org/2000/svg" xmlns:xlink="http://www.w3.org/1999/xlink">
	<desc>
			Created with Pixso.
	</desc>
	<defs>
		<clipPath id="clip3_414">
			<rect id="Logo" width="137.600006" height="32.000000" transform="translate(-0.329407 -0.500000)" fill="white" fill-opacity="0"/>
		</clipPath>
	</defs>
	<rect id="Logo" width="137.600006" height="32.000000" transform="translate(-0.329407 -0.500000)" fill="#FFFFFF" fill-opacity="0"/>
	<g clip-path="url(#clip3_414)">
		<path id="Vector" d="M38.89 22.7L47.98 22.7L47.98 20.11L41.66 20.11L41.66 8.03L38.89 8.03L38.89 22.7Z" fill="#1D1E1C" fill-opacity="1.000000" fill-rule="nonzero"/>
		<path id="Vector" d="M53.43 23C54.53 23 55.5 22.76 56.34 22.27C57.18 21.77 57.83 21.09 58.3 20.22C58.78 19.35 59.01 18.34 59.01 17.2C59.01 16.06 58.78 15.06 58.31 14.19C57.84 13.32 57.19 12.63 56.35 12.14C55.51 11.64 54.54 11.39 53.43 11.39C52.35 11.39 51.39 11.64 50.55 12.13C49.72 12.62 49.06 13.3 48.59 14.17C48.11 15.04 47.88 16.05 47.88 17.2C47.88 18.33 48.11 19.34 48.57 20.21C49.04 21.08 49.69 21.76 50.52 22.26C51.36 22.75 52.33 23 53.43 23ZM53.43 20.41C52.57 20.41 51.92 20.13 51.47 19.55C51.03 18.97 50.81 18.18 50.81 17.2C50.81 16.24 51.02 15.47 51.44 14.88C51.87 14.28 52.53 13.98 53.43 13.98C54.31 13.98 54.97 14.27 55.41 14.86C55.86 15.44 56.08 16.22 56.08 17.2C56.08 18.14 55.86 18.91 55.42 19.52C54.99 20.12 54.32 20.41 53.43 20.41Z" fill="#1D1E1C" fill-opacity="1.000000" fill-rule="nonzero"/>
		<path id="Vector" d="M64.49 23C65.01 23 65.48 22.94 65.92 22.82C66.36 22.7 66.76 22.52 67.12 22.3L67.12 23.41C67.13 23.82 67.03 24.15 66.8 24.43C66.59 24.7 66.29 24.91 65.93 25.05C65.56 25.19 65.17 25.26 64.76 25.26C64.37 25.26 64.01 25.18 63.68 25.01C63.35 24.84 63.1 24.59 62.92 24.26L60.36 25.51C60.78 26.22 61.38 26.79 62.16 27.23C62.94 27.67 63.8 27.89 64.74 27.89C65.54 27.89 66.29 27.78 66.99 27.56C67.68 27.35 68.26 27.03 68.74 26.59C69.22 26.16 69.55 25.61 69.72 24.93C69.79 24.7 69.83 24.46 69.85 24.21C69.87 23.97 69.89 23.72 69.89 23.45L69.89 11.7L67.46 11.7L67.46 12.31C67.09 12.02 66.67 11.79 66.19 11.64C65.72 11.47 65.2 11.39 64.63 11.39C63.58 11.39 62.67 11.64 61.88 12.15C61.1 12.65 60.5 13.34 60.06 14.21C59.63 15.08 59.42 16.08 59.42 17.2C59.42 18.3 59.63 19.28 60.05 20.16C60.48 21.04 61.07 21.73 61.83 22.24C62.59 22.75 63.48 23 64.49 23ZM64.94 20.54C64.34 20.54 63.85 20.39 63.47 20.09C63.09 19.79 62.81 19.39 62.63 18.89C62.44 18.38 62.35 17.81 62.35 17.2C62.35 16.59 62.45 16.03 62.64 15.53C62.83 15.02 63.12 14.61 63.51 14.32C63.91 14.01 64.42 13.86 65.04 13.86C65.91 13.86 66.53 14.17 66.9 14.78C67.28 15.39 67.46 16.2 67.46 17.2C67.46 18.19 67.27 19 66.89 19.62C66.52 20.23 65.87 20.54 64.94 20.54Z" fill="#1D1E1C" fill-opacity="1.000000" fill-rule="nonzero"/>
		<path id="Vector" d="M76.47 23C77.57 23 78.53 22.76 79.37 22.27C80.21 21.77 80.86 21.09 81.33 20.22C81.81 19.35 82.04 18.34 82.04 17.2C82.04 16.06 81.81 15.06 81.34 14.19C80.87 13.32 80.22 12.63 79.38 12.14C78.54 11.64 77.57 11.39 76.47 11.39C75.38 11.39 74.42 11.64 73.58 12.13C72.75 12.62 72.09 13.3 71.62 14.17C71.14 15.04 70.91 16.05 70.91 17.2C70.91 18.33 71.14 19.34 71.6 20.21C72.07 21.08 72.72 21.76 73.55 22.26C74.39 22.75 75.36 23 76.47 23ZM76.47 20.41C75.6 20.41 74.95 20.13 74.5 19.55C74.06 18.97 73.84 18.18 73.84 17.2C73.84 16.24 74.05 15.47 74.47 14.88C74.9 14.28 75.56 13.98 76.47 13.98C77.34 13.98 78 14.27 78.44 14.86C78.89 15.44 79.11 16.22 79.11 17.2C79.11 18.14 78.89 18.91 78.45 19.52C78.02 20.12 77.35 20.41 76.47 20.41Z" fill="#1D1E1C" fill-opacity="1.000000" fill-rule="nonzero"/>
		<path id="Vector" d="M83.27 10.17L86.04 10.17L86.04 7.73L83.27 7.73L83.27 10.17ZM83.27 22.7L86.04 22.7L86.04 11.7L83.27 11.7L83.27 22.7Z" fill="#1D1E1C" fill-opacity="1.000000" fill-rule="nonzero"/>
		<path id="Vector" d="M87.85 27.58L90.64 27.58L90.64 22.3C91 22.52 91.39 22.7 91.83 22.82C92.27 22.94 92.75 23 93.26 23C94.27 23 95.16 22.75 95.92 22.24C96.68 21.73 97.27 21.04 97.69 20.16C98.12 19.28 98.33 18.3 98.33 17.2C98.33 16.08 98.12 15.08 97.68 14.21C97.25 13.34 96.65 12.65 95.87 12.15C95.09 11.64 94.17 11.39 93.12 11.39C92.55 11.39 92.03 11.47 91.55 11.64C91.08 11.79 90.66 12.02 90.29 12.31L90.29 11.7L87.85 11.7L87.85 27.58ZM92.81 20.54C91.89 20.54 91.24 20.23 90.86 19.62C90.48 19 90.29 18.19 90.29 17.2C90.29 16.2 90.48 15.39 90.85 14.78C91.23 14.17 91.85 13.86 92.71 13.86C93.33 13.86 93.84 14.01 94.23 14.32C94.63 14.61 94.93 15.02 95.12 15.53C95.31 16.03 95.4 16.59 95.4 17.2C95.4 17.81 95.31 18.38 95.13 18.89C94.94 19.39 94.66 19.79 94.28 20.09C93.9 20.39 93.41 20.54 92.81 20.54Z" fill="#1D1E1C" fill-opacity="1.000000" fill-rule="nonzero"/>
		<path id="Vector" d="M103.35 23C104.79 23 105.92 22.68 106.73 22.03C107.55 21.39 107.95 20.5 107.95 19.38C107.95 18.52 107.69 17.85 107.16 17.35C106.64 16.85 105.75 16.44 104.49 16.12C103.64 15.9 103 15.72 102.58 15.59C102.16 15.45 101.89 15.32 101.75 15.19C101.62 15.06 101.56 14.9 101.56 14.71C101.56 14.39 101.71 14.15 102.02 13.98C102.33 13.81 102.74 13.74 103.25 13.78C104.33 13.86 104.92 14.32 105.02 15.16L107.85 14.65C107.71 13.65 107.22 12.86 106.38 12.28C105.55 11.69 104.48 11.39 103.19 11.39C101.86 11.39 100.79 11.71 100 12.33C99.21 12.95 98.81 13.8 98.81 14.86C98.81 15.7 99.08 16.36 99.63 16.85C100.18 17.33 101.13 17.75 102.47 18.09C103.27 18.3 103.85 18.47 104.23 18.6C104.61 18.73 104.85 18.86 104.96 19C105.07 19.13 105.12 19.3 105.12 19.52C105.12 19.86 104.99 20.14 104.71 20.33C104.44 20.52 104.06 20.62 103.55 20.62C102.94 20.62 102.44 20.47 102.04 20.18C101.64 19.89 101.39 19.48 101.27 18.97L98.44 19.4C98.63 20.54 99.14 21.43 99.99 22.06C100.85 22.69 101.97 23 103.35 23Z" fill="#1D1E1C" fill-opacity="1.000000" fill-rule="nonzero"/>
		<path id="Vector" d="M113.06 23.02C113.86 23.02 114.55 22.89 115.14 22.62C115.73 22.36 116.22 22.01 116.63 21.56L116.63 22.7L119.07 22.7L119.07 11.7L116.28 11.7L116.28 17.28C116.28 17.96 116.2 18.51 116.04 18.93C115.9 19.34 115.7 19.66 115.46 19.87C115.23 20.09 114.97 20.23 114.7 20.3C114.43 20.38 114.17 20.41 113.94 20.41C113.35 20.41 112.89 20.28 112.56 20.02C112.24 19.75 112.01 19.42 111.87 19.03C111.73 18.64 111.64 18.25 111.62 17.86C111.59 17.46 111.57 17.14 111.57 16.89L111.57 11.7L108.76 11.7L108.76 17.87C108.76 18.05 108.78 18.34 108.81 18.74C108.83 19.14 108.91 19.59 109.04 20.08C109.17 20.56 109.38 21.03 109.68 21.47C109.99 21.92 110.41 22.29 110.95 22.58C111.5 22.87 112.2 23.02 113.06 23.02Z" fill="#1D1E1C" fill-opacity="1.000000" fill-rule="nonzero"/>
		<path id="Vector" d="M120.67 22.7L123.46 22.7L123.46 16.04C123.46 15.4 123.63 14.89 123.98 14.5C124.33 14.1 124.8 13.9 125.38 13.9C125.98 13.9 126.45 14.1 126.79 14.51C127.14 14.91 127.31 15.47 127.31 16.2L127.31 22.7L130.08 22.7L130.08 16.04C130.08 15.4 130.25 14.89 130.6 14.5C130.95 14.1 131.42 13.9 131.99 13.9C132.6 13.9 133.07 14.1 133.41 14.51C133.75 14.91 133.93 15.47 133.93 16.2L133.93 22.7L136.7 22.7L136.7 15.47C136.7 14.26 136.38 13.29 135.73 12.55C135.09 11.81 134.15 11.43 132.89 11.43C132.18 11.43 131.54 11.59 130.95 11.89C130.35 12.2 129.88 12.62 129.53 13.14C129.25 12.63 128.84 12.21 128.31 11.9C127.78 11.59 127.12 11.43 126.33 11.43C125.67 11.43 125.06 11.57 124.5 11.83C123.94 12.09 123.48 12.45 123.12 12.9L123.12 11.7L120.67 11.7L120.67 22.7Z" fill="#1D1E1C" fill-opacity="1.000000" fill-rule="nonzero"/>
		<path id="Vector" d="M15.67 -0.5C6.83 -0.5 -0.33 6.66 -0.33 15.5C8.5 15.5 15.67 8.33 15.67 -0.5Z" fill="#1D1E1C" fill-opacity="1.000000" fill-rule="nonzero"/>
		<path id="Vector" d="M15.67 31.5C24.5 31.5 31.67 24.33 31.67 15.5C22.83 15.5 15.67 22.66 15.67 31.5Z" fill="#1D1E1C" fill-opacity="1.000000" fill-rule="nonzero"/>
		<path id="Vector" d="M15.67 -0.5C24.5 -0.5 31.67 6.66 31.67 15.5C22.83 15.5 15.67 8.33 15.67 -0.5Z" fill="#1D1E1C" fill-opacity="1.000000" fill-rule="nonzero"/>
		<path id="Vector" d="M15.67 31.5C6.83 31.5 -0.33 24.33 -0.33 15.5C8.5 15.5 15.67 22.66 15.67 31.5Z" fill="#1D1E1C" fill-opacity="1.000000" fill-rule="nonzero"/>
	</g>
</svg>
