<svg width="145.000000" height="32.000000" viewBox="0 0 145 32" fill="none" xmlns="http://www.w3.org/2000/svg" xmlns:xlink="http://www.w3.org/1999/xlink">
	<desc>
			Created with Pixso.
	</desc>
	<defs>
		<clipPath id="clip3_401">
			<rect id="Logo" width="144.941177" height="32.000000" transform="translate(-0.270630 -0.500000)" fill="white" fill-opacity="0"/>
		</clipPath>
	</defs>
	<rect id="Logo" width="144.941177" height="32.000000" transform="translate(-0.270630 -0.500000)" fill="#FFFFFF" fill-opacity="0"/>
	<g clip-path="url(#clip3_401)">
		<path id="Vector" d="M42.18 20.85C42.18 21.55 42.04 22.09 41.75 22.46C41.47 22.84 41 23.02 40.35 23.02C39.73 23.02 39.29 22.84 39.04 22.46C38.79 22.09 38.66 21.55 38.66 20.85L38.66 9.19C38.66 8.5 38.79 7.96 39.04 7.58C39.29 7.21 39.73 7.02 40.35 7.02C41 7.02 41.47 7.21 41.75 7.58C42.04 7.96 42.18 8.5 42.18 9.19L42.18 20.85Z" fill="#1D1E1C" fill-opacity="1.000000" fill-rule="nonzero"/>
		<path id="Vector" d="M43.25 17.47C43.25 16.69 43.37 15.95 43.62 15.26C43.88 14.56 44.26 13.95 44.77 13.43C45.29 12.91 45.92 12.49 46.69 12.18C47.46 11.87 48.37 11.72 49.4 11.72C50.4 11.72 51.27 11.86 52.04 12.15C52.8 12.44 53.45 12.84 53.97 13.35C54.49 13.86 54.89 14.47 55.16 15.17C55.43 15.87 55.57 16.63 55.57 17.47C55.57 18.24 55.44 18.97 55.18 19.66C54.92 20.34 54.54 20.95 54.02 21.47C53.51 21.98 52.87 22.4 52.09 22.7C51.32 23.01 50.42 23.16 49.4 23.16C48.4 23.16 47.51 23.01 46.73 22.73C45.97 22.43 45.33 22.03 44.8 21.52C44.29 21.01 43.9 20.41 43.63 19.72C43.38 19.02 43.25 18.27 43.25 17.47ZM46.92 17.47C46.92 17.95 46.97 18.41 47.05 18.86C47.14 19.29 47.28 19.67 47.47 20C47.67 20.33 47.93 20.6 48.24 20.8C48.56 20.99 48.95 21.08 49.4 21.08C49.82 21.08 50.19 21 50.49 20.82C50.81 20.64 51.07 20.4 51.27 20.08C51.47 19.76 51.63 19.38 51.73 18.94C51.83 18.49 51.88 18 51.88 17.47C51.88 16.98 51.84 16.52 51.74 16.09C51.65 15.65 51.51 15.26 51.31 14.93C51.11 14.59 50.86 14.33 50.54 14.13C50.23 13.94 49.85 13.84 49.4 13.84C48.95 13.84 48.57 13.93 48.26 14.12C47.94 14.31 47.68 14.58 47.48 14.91C47.29 15.24 47.14 15.62 47.05 16.06C46.97 16.51 46.92 16.97 46.92 17.47Z" fill="#1D1E1C" fill-opacity="1.000000" fill-rule="nonzero"/>
		<path id="Vector" d="M64.62 20.9C64.42 21.26 64.18 21.58 63.89 21.83C63.61 22.09 63.3 22.3 62.96 22.47C62.62 22.63 62.25 22.76 61.86 22.84C61.48 22.91 61.09 22.95 60.68 22.95C60.01 22.95 59.39 22.83 58.83 22.58C58.27 22.34 57.79 21.99 57.39 21.54C56.99 21.07 56.68 20.51 56.46 19.84C56.24 19.17 56.13 18.4 56.13 17.54C56.13 16.73 56.23 15.98 56.44 15.27C56.64 14.56 56.94 13.95 57.33 13.43C57.73 12.91 58.21 12.5 58.79 12.19C59.36 11.89 60.02 11.74 60.75 11.74C61.59 11.74 62.33 11.9 62.98 12.23C63.63 12.55 64.2 13.08 64.67 13.81L64.67 13.53C64.67 13 64.81 12.6 65.1 12.34C65.39 12.06 65.79 11.93 66.31 11.93C66.62 11.93 66.88 11.98 67.09 12.08C67.31 12.18 67.47 12.33 67.6 12.52C67.72 12.72 67.81 12.95 67.86 13.24C67.92 13.52 67.95 13.84 67.95 14.2L67.95 21.59C67.95 22.49 67.84 23.29 67.61 24C67.39 24.7 67.04 25.3 66.57 25.78C66.1 26.27 65.5 26.63 64.76 26.88C64.03 27.14 63.15 27.27 62.14 27.27C61.43 27.27 60.79 27.24 60.24 27.17C59.7 27.11 59.23 27.02 58.83 26.9C58.43 26.76 58.13 26.6 57.93 26.43C57.73 26.26 57.63 26.04 57.63 25.77C57.63 25.62 57.65 25.47 57.7 25.33C57.74 25.19 57.81 25.06 57.89 24.95C57.99 24.85 58.11 24.77 58.26 24.7C58.41 24.64 58.6 24.61 58.82 24.61C59.06 24.61 59.29 24.63 59.53 24.66C59.77 24.69 60.02 24.72 60.28 24.75C60.54 24.78 60.82 24.81 61.1 24.84C61.4 24.87 61.71 24.89 62.05 24.89C62.46 24.89 62.82 24.85 63.13 24.77C63.45 24.69 63.72 24.54 63.94 24.34C64.16 24.13 64.33 23.86 64.45 23.51C64.56 23.17 64.62 22.74 64.62 22.21L64.62 20.9ZM64.62 17.47C64.62 16.93 64.58 16.44 64.5 16C64.43 15.56 64.3 15.18 64.11 14.87C63.93 14.56 63.68 14.31 63.38 14.15C63.07 13.97 62.68 13.88 62.22 13.88C61.76 13.88 61.38 13.97 61.08 14.16C60.79 14.34 60.55 14.59 60.38 14.92C60.2 15.24 60.07 15.62 60 16.05C59.93 16.49 59.9 16.95 59.9 17.44C59.9 18.57 60.1 19.41 60.5 19.98C60.89 20.55 61.47 20.83 62.23 20.83C62.58 20.82 62.9 20.76 63.19 20.63C63.48 20.5 63.74 20.3 63.95 20.02C64.16 19.75 64.33 19.41 64.45 18.99C64.56 18.57 64.62 18.06 64.62 17.47Z" fill="#1D1E1C" fill-opacity="1.000000" fill-rule="nonzero"/>
		<path id="Vector" d="M68.97 17.47C68.97 16.69 69.09 15.95 69.34 15.26C69.6 14.56 69.98 13.95 70.49 13.43C71 12.91 71.64 12.49 72.41 12.18C73.18 11.87 74.08 11.72 75.12 11.72C76.11 11.72 76.99 11.86 77.76 12.15C78.52 12.44 79.16 12.84 79.69 13.35C80.21 13.86 80.61 14.47 80.88 15.17C81.15 15.87 81.29 16.63 81.29 17.47C81.29 18.24 81.16 18.97 80.9 19.66C80.64 20.34 80.26 20.95 79.74 21.47C79.23 21.98 78.58 22.4 77.81 22.7C77.04 23.01 76.14 23.16 75.12 23.16C74.11 23.16 73.22 23.01 72.45 22.73C71.69 22.43 71.04 22.03 70.52 21.52C70.01 21.01 69.62 20.41 69.35 19.72C69.09 19.02 68.97 18.27 68.97 17.47ZM72.64 17.47C72.64 17.95 72.68 18.41 72.77 18.86C72.86 19.29 73 19.67 73.19 20C73.39 20.33 73.65 20.6 73.96 20.8C74.28 20.99 74.66 21.08 75.12 21.08C75.54 21.08 75.9 21 76.21 20.82C76.53 20.64 76.79 20.4 76.98 20.08C77.19 19.76 77.34 19.38 77.45 18.94C77.55 18.49 77.6 18 77.6 17.47C77.6 16.98 77.55 16.52 77.46 16.09C77.37 15.65 77.23 15.26 77.03 14.93C76.83 14.59 76.57 14.33 76.26 14.13C75.95 13.94 75.57 13.84 75.12 13.84C74.67 13.84 74.29 13.93 73.97 14.12C73.66 14.31 73.4 14.58 73.2 14.91C73 15.24 72.86 15.62 72.77 16.06C72.68 16.51 72.64 16.97 72.64 17.47Z" fill="#1D1E1C" fill-opacity="1.000000" fill-rule="nonzero"/>
		<path id="Vector" d="M86.02 8C86.02 8.25 85.96 8.46 85.85 8.65C85.74 8.84 85.6 8.99 85.42 9.12C85.24 9.24 85.04 9.34 84.8 9.4C84.57 9.46 84.34 9.49 84.1 9.49C83.84 9.49 83.59 9.46 83.36 9.39C83.13 9.33 82.93 9.23 82.75 9.11C82.57 8.97 82.43 8.81 82.33 8.63C82.23 8.45 82.18 8.24 82.18 8C82.18 7.79 82.22 7.59 82.32 7.42C82.42 7.23 82.56 7.08 82.73 6.94C82.9 6.81 83.1 6.71 83.34 6.63C83.57 6.56 83.83 6.52 84.11 6.52C84.35 6.52 84.59 6.56 84.81 6.62C85.05 6.69 85.25 6.79 85.43 6.91C85.61 7.04 85.75 7.19 85.85 7.37C85.96 7.56 86.02 7.77 86.02 8ZM85.85 20.85C85.85 21.55 85.71 22.09 85.42 22.46C85.14 22.84 84.67 23.02 84.02 23.02C83.4 23.02 82.96 22.84 82.71 22.46C82.46 22.09 82.33 21.55 82.33 20.85L82.33 14.1C82.33 13.4 82.46 12.87 82.71 12.49C82.96 12.12 83.4 11.93 84.02 11.93C84.67 11.93 85.14 12.12 85.42 12.49C85.71 12.87 85.85 13.4 85.85 14.1L85.85 20.85Z" fill="#1D1E1C" fill-opacity="1.000000" fill-rule="nonzero"/>
		<path id="Vector" d="M90.92 17.44C90.92 17.94 90.96 18.4 91.03 18.82C91.11 19.25 91.24 19.62 91.43 19.95C91.62 20.26 91.87 20.51 92.18 20.7C92.49 20.88 92.88 20.97 93.35 20.97C93.77 20.97 94.13 20.88 94.42 20.71C94.71 20.52 94.95 20.27 95.12 19.96C95.3 19.63 95.43 19.26 95.5 18.82C95.58 18.39 95.62 17.92 95.62 17.41C95.62 17.01 95.59 16.59 95.53 16.18C95.47 15.75 95.36 15.36 95.2 15.02C95.04 14.67 94.82 14.39 94.53 14.17C94.24 13.95 93.87 13.84 93.4 13.84C92.94 13.84 92.55 13.91 92.22 14.06C91.91 14.2 91.65 14.43 91.45 14.73C91.26 15.03 91.12 15.41 91.04 15.87C90.96 16.31 90.92 16.84 90.92 17.44ZM90.91 14.1C91.09 13.71 91.33 13.37 91.62 13.08C91.9 12.78 92.22 12.54 92.56 12.34C92.91 12.14 93.27 11.99 93.65 11.9C94.03 11.79 94.41 11.74 94.78 11.74C95.46 11.74 96.07 11.89 96.61 12.19C97.16 12.5 97.62 12.91 98 13.43C98.39 13.94 98.69 14.55 98.9 15.26C99.1 15.96 99.2 16.71 99.2 17.51C99.2 18.34 99.09 19.1 98.87 19.79C98.66 20.48 98.36 21.08 97.96 21.58C97.57 22.07 97.1 22.46 96.55 22.74C96 23.02 95.4 23.16 94.73 23.16C93.9 23.16 93.17 22.97 92.52 22.58C91.87 22.2 91.34 21.66 90.91 20.97L90.91 24.94C90.91 25.64 90.77 26.18 90.48 26.55C90.2 26.93 89.73 27.12 89.08 27.12C88.46 27.12 88.02 26.93 87.77 26.55C87.52 26.18 87.39 25.64 87.39 24.94L87.39 14.1C87.39 13.4 87.52 12.87 87.77 12.49C88.02 12.12 88.46 11.93 89.08 11.93C89.73 11.93 90.2 12.12 90.48 12.49C90.77 12.87 90.91 13.4 90.91 14.1Z" fill="#1D1E1C" fill-opacity="1.000000" fill-rule="nonzero"/>
		<path id="Vector" d="M103.09 14.88C103.09 15.17 103.21 15.4 103.46 15.56C103.71 15.71 104.06 15.84 104.5 15.94C104.92 16.04 105.35 16.13 105.79 16.22C106.23 16.31 106.66 16.41 107.08 16.53C107.5 16.64 107.89 16.77 108.26 16.92C108.63 17.08 108.95 17.27 109.23 17.51C109.51 17.74 109.73 18.02 109.89 18.35C110.05 18.67 110.13 19.06 110.13 19.52C110.13 20.09 110.02 20.6 109.78 21.05C109.55 21.49 109.21 21.87 108.78 22.17C108.35 22.48 107.84 22.72 107.24 22.89C106.65 23.06 105.99 23.15 105.27 23.16C104.59 23.16 103.93 23.11 103.29 23.02C102.66 22.94 102.1 22.81 101.61 22.64C101.12 22.46 100.73 22.24 100.44 21.99C100.14 21.72 100 21.41 100 21.06C100 20.75 100.1 20.51 100.3 20.34C100.49 20.17 100.75 20.09 101.06 20.09C101.17 20.09 101.31 20.11 101.48 20.16C101.64 20.2 101.81 20.26 102 20.32C102.2 20.39 102.4 20.46 102.61 20.54C102.83 20.62 103.06 20.68 103.29 20.74C103.59 20.82 103.89 20.89 104.2 20.94C104.52 20.98 104.84 21.01 105.17 21.01C105.38 21.01 105.58 20.99 105.78 20.95C105.98 20.91 106.15 20.84 106.31 20.76C106.47 20.67 106.6 20.56 106.7 20.43C106.81 20.3 106.87 20.14 106.89 19.95C106.91 19.9 106.93 19.86 106.95 19.81C106.96 19.77 106.97 19.72 106.97 19.66C106.97 19.45 106.87 19.27 106.68 19.11C106.5 18.95 106.24 18.82 105.9 18.72C105.33 18.59 104.79 18.47 104.28 18.36C103.76 18.25 103.28 18.13 102.84 18.01C102.41 17.88 102.01 17.74 101.65 17.58C101.3 17.41 101 17.22 100.75 16.98C100.51 16.74 100.31 16.46 100.17 16.13C100.04 15.8 99.97 15.4 99.97 14.93C99.97 14.42 100.09 13.97 100.32 13.57C100.55 13.17 100.89 12.83 101.32 12.56C101.75 12.29 102.28 12.08 102.9 11.94C103.52 11.79 104.21 11.72 104.99 11.72C106.39 11.72 107.45 11.89 108.18 12.23C108.92 12.56 109.28 12.99 109.28 13.53C109.28 13.83 109.18 14.06 108.99 14.22C108.79 14.38 108.55 14.45 108.27 14.45C108.12 14.45 107.97 14.43 107.81 14.38C107.65 14.32 107.46 14.26 107.24 14.19C107.02 14.12 106.76 14.05 106.45 14C106.15 13.94 105.77 13.91 105.32 13.91C104.99 13.91 104.68 13.93 104.4 13.96C104.13 13.99 103.89 14.04 103.69 14.11C103.5 14.19 103.35 14.29 103.24 14.41C103.14 14.54 103.09 14.69 103.09 14.88Z" fill="#1D1E1C" fill-opacity="1.000000" fill-rule="nonzero"/>
		<path id="Vector" d="M114.61 18.93C114.61 19.28 114.65 19.58 114.74 19.84C114.84 20.09 114.97 20.31 115.13 20.49C115.29 20.66 115.48 20.79 115.69 20.87C115.91 20.95 116.15 21 116.4 21C116.69 21 116.97 20.95 117.25 20.86C117.52 20.77 117.76 20.64 117.96 20.45C118.18 20.27 118.35 20.04 118.47 19.76C118.59 19.48 118.66 19.15 118.66 18.78L118.66 14.1C118.66 13.4 118.78 12.87 119.03 12.49C119.29 12.12 119.73 11.93 120.35 11.93C121 11.93 121.47 12.12 121.75 12.49C122.03 12.87 122.18 13.4 122.18 14.1L122.18 20.85C122.18 21.55 122.03 22.09 121.75 22.46C121.47 22.84 121 23.02 120.35 23.02C119.73 23.02 119.29 22.84 119.03 22.46C118.78 22.09 118.66 21.55 118.66 20.85C118.5 21.19 118.3 21.5 118.05 21.78C117.81 22.06 117.52 22.3 117.19 22.51C116.87 22.7 116.51 22.86 116.11 22.97C115.72 23.08 115.3 23.13 114.84 23.13C114.35 23.13 113.87 23.05 113.42 22.88C112.97 22.7 112.57 22.45 112.23 22.11C111.88 21.76 111.61 21.34 111.4 20.83C111.19 20.32 111.09 19.73 111.09 19.05L111.09 14.1C111.09 13.4 111.22 12.87 111.47 12.49C111.72 12.12 112.16 11.93 112.78 11.93C113.43 11.93 113.9 12.12 114.18 12.49C114.47 12.87 114.61 13.4 114.61 14.1L114.61 18.93Z" fill="#1D1E1C" fill-opacity="1.000000" fill-rule="nonzero"/>
		<path id="Vector" d="M123.77 14.1C123.77 13.4 123.9 12.87 124.15 12.49C124.41 12.12 124.84 11.93 125.46 11.93C126.12 11.93 126.58 12.12 126.86 12.49C127.15 12.87 127.29 13.4 127.29 14.1C127.44 13.75 127.64 13.43 127.89 13.14C128.14 12.85 128.44 12.6 128.76 12.39C129.09 12.19 129.45 12.03 129.83 11.92C130.21 11.8 130.61 11.74 131.02 11.74C131.4 11.74 131.78 11.79 132.14 11.9C132.52 11.99 132.87 12.15 133.18 12.37C133.5 12.58 133.79 12.86 134.03 13.19C134.27 13.52 134.46 13.91 134.59 14.38C134.82 13.88 135.09 13.47 135.4 13.13C135.71 12.79 136.04 12.52 136.4 12.31C136.76 12.11 137.14 11.96 137.53 11.87C137.92 11.79 138.32 11.74 138.72 11.74C139.19 11.74 139.64 11.83 140.06 12C140.5 12.16 140.88 12.42 141.2 12.77C141.53 13.11 141.79 13.54 141.98 14.06C142.18 14.57 142.28 15.18 142.28 15.87L142.28 20.85C142.28 21.55 142.14 22.09 141.85 22.46C141.57 22.84 141.1 23.02 140.45 23.02C139.83 23.02 139.39 22.84 139.14 22.46C138.89 22.09 138.76 21.55 138.76 20.85L138.76 16.02C138.76 15.69 138.72 15.4 138.63 15.14C138.54 14.87 138.42 14.65 138.25 14.48C138.1 14.29 137.92 14.16 137.7 14.07C137.49 13.97 137.26 13.93 137.02 13.93C136.72 13.93 136.43 13.97 136.16 14.07C135.89 14.16 135.65 14.31 135.44 14.51C135.24 14.71 135.08 14.96 134.96 15.27C134.84 15.58 134.78 15.95 134.78 16.38L134.78 20.85C134.78 21.55 134.64 22.09 134.35 22.46C134.07 22.84 133.6 23.02 132.95 23.02C132.33 23.02 131.89 22.84 131.64 22.46C131.39 22.09 131.26 21.55 131.26 20.85L131.26 16.23C131.26 15.47 131.1 14.9 130.79 14.51C130.48 14.12 130.06 13.93 129.52 13.93C129.2 13.93 128.91 13.98 128.64 14.08C128.36 14.18 128.13 14.33 127.93 14.53C127.73 14.73 127.57 14.98 127.46 15.27C127.35 15.56 127.29 15.9 127.29 16.29L127.29 20.85C127.29 21.55 127.15 22.09 126.86 22.46C126.58 22.84 126.12 23.02 125.46 23.02C124.84 23.02 124.41 22.84 124.15 22.46C123.9 22.09 123.77 21.55 123.77 20.85L123.77 14.1Z" fill="#1D1E1C" fill-opacity="1.000000" fill-rule="nonzero"/>
		<path id="Vector" d="M15.72 21.14C12.61 21.14 10.08 18.61 10.08 15.5C10.08 12.38 12.61 9.85 15.72 9.85C18.84 9.85 21.37 12.38 21.37 15.5C21.37 18.61 18.84 21.14 15.72 21.14Z" fill="#1D1E1C" fill-opacity="1.000000" fill-rule="nonzero"/>
		<path id="Vector" d="M4.78 17.42C3.15 17.71 2.03 19.29 2.65 20.83C3.53 22.98 4.93 24.89 6.74 26.39C9.34 28.53 12.61 29.67 15.97 29.61C19.33 29.55 22.56 28.3 25.08 26.07C26.84 24.51 28.17 22.55 28.97 20.37C29.55 18.81 28.37 17.27 26.73 17.04C25.08 16.81 23.6 18.01 22.79 19.46C22.35 20.24 21.78 20.96 21.09 21.56C19.65 22.84 17.79 23.56 15.87 23.59C13.94 23.63 12.06 22.97 10.57 21.75C9.87 21.16 9.27 20.47 8.8 19.7C7.94 18.28 6.42 17.14 4.78 17.42Z" fill="#1D1E1C" fill-opacity="1.000000" fill-rule="nonzero"/>
		<path id="Vector" d="M29.73 17.26C29.8 16.68 29.84 16.09 29.84 15.5C29.84 7.7 23.52 1.38 15.72 1.38C7.93 1.38 1.61 7.7 1.61 15.5C1.61 16.26 1.67 17.01 1.79 17.75C2.43 16.86 3.45 16.23 4.54 16.03C5.72 15.83 6.8 16.11 7.71 16.65C7.65 16.27 7.62 15.89 7.62 15.5C7.62 11.02 11.25 7.39 15.72 7.39C20.2 7.39 23.82 11.02 23.82 15.5C23.82 15.79 23.81 16.08 23.78 16.37C24.67 15.8 25.73 15.48 26.92 15.64C28.02 15.8 29.05 16.4 29.73 17.26Z" fill="#1D1E1C" fill-opacity="1.000000" fill-rule="nonzero"/>
	</g>
</svg>
